<svg width="180" height="180" viewBox="0 0 192 192" xmlns="http://www.w3.org/2000/svg">
  <rect width="192" height="192" rx="38" fill="#000"/>
  <path d="M96 20 C96 20 72 45 72 72 C72 88 80 100 88 108 C80 115 72 125 72 140 C72 160 84 175 96 175 C108 175 120 165 120 150 C120 132 108 122 96 115 C96 115 100 105 104 95 C116 85 124 72 124 58 C124 38 112 20 96 20 Z M96 40 C104 40 112 50 112 62 C112 74 104 84 96 92 C88 84 80 74 80 62 C80 50 88 40 96 40 Z M88 112 C96 118 108 128 108 142 C108 154 102 162 96 162 C90 162 84 155 84 145 C84 133 88 122 88 112 Z" fill="white"/>
</svg>
